<svg width="123" height="28" viewBox="0 0 123 28" fill="none" xmlns="http://www.w3.org/2000/svg">
<path fill-rule="evenodd" clip-rule="evenodd" d="M15.4802 18.3601C15.7441 18.2282 16.0079 18.4921 16.1399 18.7559C16.1399 18.7559 16.5356 20.339 17.0633 20.339C17.0633 20.6029 17.0633 20.8667 16.7995 20.9987C15.876 21.3944 13.8971 21.9221 11.7863 21.9221C5.45384 21.9221 0.968353 17.4367 0.968353 11.3681C0.968353 4.90367 5.71769 0.813965 12.1821 0.813965C13.1056 0.813965 14.9525 1.07782 16.1399 1.34167C16.2718 1.47359 16.5356 1.73745 16.5356 2.0013V6.35486C16.5356 6.61871 16.2718 6.88257 16.0079 6.88257H14.8206C14.5567 6.88257 14.4248 6.75064 14.2929 6.48679L13.8971 4.77175C13.6333 3.84827 12.8417 3.45249 11.2586 3.45249C6.7731 3.45249 5.32191 7.01449 5.32191 10.7084C5.32191 14.9301 7.30081 18.8878 12.314 18.8878C13.3694 19.0198 14.8206 18.7559 15.4802 18.3601ZM25.5066 19.2836C27.0897 19.2836 28.1451 18.0963 28.1451 16.909L28.0132 14.5343C28.0132 14.4024 28.0132 14.2704 27.7494 14.2704C24.3193 14.2704 23.1319 15.4578 23.1319 17.1728C23 18.3601 24.0554 19.2836 25.5066 19.2836ZM33.9499 19.5475C33.9499 19.2836 33.686 19.1517 33.4222 19.1517C33.1583 19.2836 32.8945 19.2836 32.6306 19.2836C31.971 19.2836 31.8391 18.8878 31.8391 18.3601V11.3681C31.8391 7.27834 29.3325 5.69523 25.6385 5.69523C23.7916 5.69523 21.8127 6.09101 20.4934 6.61871C20.2296 6.75064 20.0976 7.01449 20.2296 7.27834L20.6253 9.12531C20.7573 9.52109 21.0211 9.52109 21.285 9.38916C22.2085 8.86146 23.3958 8.59761 24.5831 8.59761C26.562 8.59761 28.0132 9.38916 28.0132 11.1042V11.6319C28.0132 11.8958 27.8813 12.1596 27.7494 12.1596C23.1319 12.1596 19.3061 13.6108 19.3061 17.8324C19.3061 20.2071 21.0211 22.0541 23.7916 22.0541C26.2982 22.0541 27.4855 20.9987 28.409 19.9433H28.5409C28.6728 21.1306 29.3325 22.0541 31.0475 22.0541C31.971 22.0541 33.5541 21.7902 33.818 21.5264C34.0818 21.3944 34.0818 21.2625 34.0818 20.9987L33.9499 19.5475ZM44.1082 8.72953C42.5251 8.72953 41.3377 9.65302 41.3377 11.1042V17.1728C41.3377 18.4921 42.2612 19.2836 43.8443 19.2836C46.7467 19.2836 47.8021 16.3812 47.8021 13.7427C47.6702 11.2361 46.6148 8.72953 44.1082 8.72953ZM43.7124 27.463C43.9763 27.463 44.2401 27.1992 44.2401 26.9353V26.1438C44.2401 25.8799 44.1082 25.6161 43.8443 25.6161L41.9974 25.3522C41.7335 25.2203 41.3377 24.9564 41.3377 24.4287V21.1306C41.4697 21.1306 41.7335 21.1306 41.9974 21.1306C42.3932 21.1306 42.657 21.2625 43.0528 21.2625C48.8575 21.2625 51.7599 17.7005 51.7599 12.5554C51.7599 8.33375 49.2533 5.43138 45.6913 5.43138C43.3166 5.43138 41.9974 6.61871 40.942 7.80605H40.81L40.5462 6.35486C40.5462 6.09101 40.2823 5.69523 39.8866 5.82716L35.0053 6.35486C34.7414 6.35486 34.4776 6.61871 34.4776 6.88257V7.67412C34.4776 7.93797 34.6095 8.0699 34.8734 8.20183L36.3246 8.46568C36.8523 8.59761 36.9842 9.12531 36.9842 9.38916V24.8245C36.9842 25.4841 36.7203 25.748 36.3246 25.748L35.1372 26.1438C34.8734 26.2757 34.7414 26.4076 34.7414 26.6715V27.463C34.7414 27.7269 35.0053 27.9907 35.2691 27.9907L43.7124 27.463ZM63.5013 18.7559C63.8971 18.7559 64.161 18.8878 64.161 19.1517L64.6887 20.7348C64.6887 21.1306 64.6887 21.2625 64.4248 21.3944C63.5013 21.9221 61.7863 22.186 60.599 22.186C57.5647 22.186 55.4538 20.471 55.4538 17.4367V9.52109C55.4538 9.25724 55.3219 9.12531 55.0581 9.12531H52.9472C52.6834 9.12531 52.6834 8.99338 52.6834 8.72953L52.8153 7.01449C52.8153 7.01449 52.9472 6.75064 53.0792 6.75064H54.7942C55.19 6.75064 55.19 6.48679 55.19 6.22294V4.24404C55.19 3.84826 55.3219 3.58441 55.7177 3.45249L58.6201 2.529C59.0158 2.39708 59.1478 2.66093 59.1478 3.05671V6.22294C59.1478 6.35486 59.2797 6.61871 59.5435 6.61871H63.3694C63.5013 6.61871 63.6333 6.75064 63.6333 6.88257V8.72953C63.6333 8.72953 63.5013 8.99338 63.3694 8.99338H59.5435C59.2797 8.99338 59.0158 9.12531 59.0158 9.38916V16.5132C59.0158 18.2282 59.9393 19.2836 61.6544 19.2836C62.1821 19.1517 62.8417 19.0198 63.5013 18.7559ZM75.1108 10.1807C75.1108 12.2915 73 12.9512 71.0211 12.9512C70.4934 12.9512 70.0976 12.9512 69.8338 12.8192C69.5699 12.8192 69.438 12.6873 69.438 12.4235C69.3061 10.4446 70.3615 7.80605 72.7362 7.80605C74.1873 7.80605 75.1108 8.86146 75.1108 10.1807ZM77.7494 18.2282C78.0132 17.9644 78.2771 18.2282 78.409 18.4921L78.5409 20.0752C78.6728 20.339 78.5409 20.6029 78.2771 20.7348C77.0897 21.5264 75.2428 21.9221 73.5277 21.9221C68.2507 21.9221 65.4802 18.624 65.4802 13.7427C65.4802 9.12531 69.0422 5.69523 73.3958 5.69523C76.2982 5.69523 79.2005 7.27834 79.2005 10.3126C79.2005 13.8747 75.5066 15.1939 72.3404 15.1939C71.9446 15.1939 71.5488 15.1939 71.1531 15.1939C70.7573 15.1939 70.4934 15.1939 70.2296 15.1939C69.9657 15.1939 69.8338 15.3258 69.8338 15.5897C70.0976 17.9644 72.4723 19.4155 74.4512 19.4155C75.9024 19.4155 76.9578 18.8878 77.7494 18.4921C77.7494 18.2282 77.7494 18.2282 77.7494 18.2282ZM89.6227 21.6583C89.8866 21.6583 90.1504 21.3944 90.1504 21.1306V20.339C90.1504 20.0752 90.0185 19.9433 89.7546 19.8113L87.9077 19.5475C87.6438 19.5475 87.248 19.1517 87.248 18.624V11.7638C87.248 10.1807 88.5673 9.25724 90.0185 9.25724C90.6781 9.25724 91.3377 9.38916 91.8654 9.52109C92.1293 9.65301 92.5251 9.38916 92.5251 9.25724L93.1847 6.48679C93.3166 6.09101 93.1847 5.82716 92.9209 5.82716C92.5251 5.56331 91.9974 5.5633 91.6016 5.5633C89.6227 5.5633 88.3035 6.88257 87.1161 8.46568H86.9842L86.7203 6.35486C86.7203 5.95908 86.4565 5.69523 86.1926 5.69523L81.3114 6.35486C81.0475 6.35486 80.7837 6.61871 80.7837 6.88257V7.67412C80.7837 7.93797 80.9156 8.0699 81.1794 8.20183L82.6306 8.46568C83.1583 8.59761 83.2902 9.12531 83.2902 9.38916V18.8878C83.2902 19.5475 83.0264 19.8113 82.6306 19.8113L81.3114 20.0752C81.0475 20.2071 80.9156 20.339 80.9156 20.6029V21.3944C80.9156 21.6583 81.1794 21.9221 81.4433 21.9221H89.6227V21.6583ZM103.475 21.1306C103.475 21.3944 103.211 21.6583 102.947 21.6583H94.7678C94.504 21.6583 94.2401 21.3944 94.2401 21.1306V20.339C94.2401 20.0752 94.372 19.9433 94.6359 19.8113L95.9552 19.5475C96.3509 19.5475 96.6148 19.1517 96.6148 18.624V9.12531C96.6148 8.72953 96.4829 8.33375 95.9552 8.20183L94.504 7.93797C94.2401 7.80605 94.1082 7.67412 94.1082 7.41027V6.61871C94.1082 6.35486 94.372 6.09101 94.6359 6.09101L99.5172 5.43138C99.781 5.43138 100.045 5.69523 100.045 6.09101L100.309 8.46568H100.441C101.628 6.88257 103.079 5.5633 104.926 5.5633C105.322 5.5633 105.85 5.56331 106.245 5.82716C106.509 5.82716 106.641 6.09101 106.509 6.48679L105.85 9.25724C105.85 9.38916 105.454 9.65301 105.19 9.52109C104.662 9.38916 104.003 9.25724 103.343 9.25724C101.892 9.25724 100.573 10.1807 100.573 11.7638V18.624C100.573 19.2836 100.968 19.5475 101.232 19.5475L103.079 19.8113C103.343 19.9433 103.475 20.0752 103.475 20.339V21.1306ZM117.063 16.909C117.063 18.0963 116.14 19.2836 114.425 19.2836C113.106 19.2836 111.918 18.3601 111.918 17.0409C111.918 15.3258 113.106 14.1385 116.536 14.1385C116.799 14.1385 116.799 14.2704 116.799 14.4024L117.063 16.909ZM122.34 19.1517C122.604 19.1517 122.868 19.2836 122.868 19.5475L123.132 21.1306C123.132 21.3944 123.132 21.5264 122.868 21.6583C122.472 21.9221 121.021 22.186 120.098 22.186C118.515 22.186 117.723 21.3944 117.591 20.0752H117.459C116.536 20.9987 115.216 22.186 112.842 22.186C110.071 22.186 108.356 20.339 108.356 17.9644C108.356 13.7427 112.182 12.2915 116.799 12.2915C116.931 12.2915 117.063 12.0277 117.063 11.7638V11.1042C117.063 9.25724 115.612 8.59761 113.633 8.59761C112.446 8.59761 111.127 8.99338 110.335 9.38916C110.071 9.52109 109.807 9.52109 109.675 9.12531L109.28 7.27834C109.148 7.01449 109.28 6.75064 109.544 6.61871C110.863 5.95908 112.842 5.69523 114.689 5.69523C118.383 5.69523 120.889 7.27834 120.889 11.3681V18.3601C120.889 19.0198 121.153 19.2836 121.813 19.2836C121.813 19.2836 122.077 19.2836 122.34 19.1517Z" fill="black"/>
</svg>
